# generated from PmQm by Jehee Lee
:FULLY-SPECIFIED
:DEGREES
587
root 47.06089551 39.0802 -65.67254947 -179.901103 25.67517727 178.5305569
RightUpLeg -28.71827519 -0.8178077961 0.06079568089
RightLeg 12.27233756 1.743963673 -0.3715124684
RightFoot 2.470150861 9.181038945 1.250184137
RightToes 2.32829e-010 -1.59028e-015 9.93923e-017
Spine -8.6081 -5.6719 -9.68894
Spine1 12.1741 -6.65675 4.99614
HEad -8.60171 4.91217 1.54686
LeftShoulder1 9.93923e-017 0 1.22299e-017
LeftArm 29.7915 11.8395 -76.3575
LeftForeArm -47.9949 -30.8542 19.1422
LeftHand 0.888198 6.19945 -2.12654
RightShoulder 1.98785e-016 -4.96962e-017 1.55301e-017
RightArm 26.0322 -63.0557 75.5544
RightForeArm -39.6685 18.7275 -7.09118
RightHand 1.04538 -10.2148 -3.06739
LeftUpLeg 16.68009793 0.4956508281 0.9421466159
LeftLeg -3.756877186 0 0
LeftFoot -8.031654995 15.87653893 -10.02931803
LeftToes 8.82235e-011 9.04645e-011 1.87288e-011
588
root 47.56822762 38.8762 -66.95343229 -179.7898108 27.63500799 178.4377621
RightUpLeg -28.59151121 2.31356078 -1.920972026
RightLeg 3.308799657 -0.7385798973 0.6571945001
RightFoot 2.03409637 6.26297417 2.650339107
RightToes 2.32829e-010 -1.59028e-015 9.93923e-017
Spine -9.49751 -6.05755 -10.1279
Spine1 12.8917 -7.15563 5.92882
HEad -8.55562 5.05889 1.51876
LeftShoulder1 9.93923e-017 0 1.22299e-017
LeftArm 29.9484 10.6982 -76.4209
LeftForeArm -47.6176 -30.435 18.9857
LeftHand 0.867906 6.04462 -1.99351
RightShoulder 1.98785e-016 -4.96962e-017 1.55301e-017
RightArm 23.3053 -63.3984 74.2572
RightForeArm -36.4712 18.0456 -5.27696
RightHand 1.09058 -10.5989 -3.03782
LeftUpLeg 19.06758018 1.042911394 0.6770038712
LeftLeg -3.756877186 0 0
LeftFoot -9.555424716 16.99210276 -12.40532875
LeftToes 8.82235e-011 9.04645e-011 1.87288e-011
589
root 48.12584041 38.601 -68.26985846 -179.8720544 30.01678627 178.0354079
RightUpLeg -30.14030948 2.273537101 -2.380074755
RightLeg 1.247666059 0.1587677211 0.1999322723
RightFoot -0.7689446669 4.171527102 4.526976467
RightToes 2.32829e-010 -1.59028e-015 9.93923e-017
Spine -10.2439 -6.31079 -10.7884
Spine1 13.3337 -7.44763 6.66218
HEad -8.54849 5.23696 1.35208
LeftShoulder1 9.93923e-017 0 1.22299e-017
LeftArm 29.7653 10.9109 -76.8662
LeftForeArm -47.4502 -29.5983 18.6497
LeftHand 0.826019 5.78296 -1.20192
RightShoulder 1.98785e-016 -4.96962e-017 1.55301e-017
RightArm 18.8351 -63.2616 73.5959
RightForeArm -32.1964 17.001 -3.12863
RightHand 1.1245 -10.9169 -2.9294
LeftUpLeg 21.61632928 1.908419863 0.05385157579
LeftLeg -3.756877186 0 0
LeftFoot -10.12186035 17.81220504 -15.40394014
LeftToes 8.82235e-011 9.04645e-011 1.87288e-011
590
root 48.84886374 38.4189 -69.50489981 -179.5694296 33.05785284 178.3799897
RightUpLeg -29.9171662 2.833192365 -1.216278105
RightLeg 1.858433306 0 0
RightFoot -0.6983339551 3.271133859 5.140383006
RightToes 2.32829e-010 -1.59028e-015 9.93923e-017
Spine -10.7843 -6.26734 -10.1272
Spine1 13.8011 -7.57906 7.00812
HEad -8.70347 5.48074 1.07417
LeftShoulder1 9.93923e-017 0 1.22299e-017
LeftArm 29.2754 12.6124 -77.5387
LeftForeArm -48.1855 -28.5891 18.2097
LeftHand 0.801969 5.68333 -0.307163
RightShoulder 1.98785e-016 -4.96962e-017 1.55301e-017
RightArm 13.7765 -62.7281 73.6493
RightForeArm -28.2108 15.8837 -1.35653
RightHand 1.12705 -10.9789 -2.80964
LeftUpLeg 24.04150721 2.59266292 0.008153277587
LeftLeg -3.756877186 0 0
LeftFoot -9.400153901 19.30497976 -18.69533606
LeftToes 8.82235e-011 9.04645e-011 1.87288e-011
591
root 50.03829512 38.2878 -70.4455874 -178.7996878 36.48845882 179.6225139
RightUpLeg -26.14010947 4.709146441 2.382994882
RightLeg -3.756911303 0 0
RightFoot 8.082058355 4.788915222 2.687090559
RightToes 2.32829e-010 -1.59028e-015 9.93923e-017
Spine -11.0823 -6.32863 -8.25998
Spine1 14.0797 -7.86548 7.06816
HEad -8.76553 5.69424 0.709591
LeftShoulder1 9.93923e-017 0 1.22299e-017
LeftArm 29.0949 15.9192 -78.3907
LeftForeArm -49.8271 -27.3878 17.7096
LeftHand 0.82302 5.83404 -0.371178
RightShoulder 1.98785e-016 -4.96962e-017 1.55301e-017
RightArm 10.2148 -62.1444 74.3148
RightForeArm -26.0691 15.2511 -0.567928
RightHand 1.12095 -10.8908 -2.91922
LeftUpLeg 26.39478539 2.312324108 1.021042705
LeftLeg -3.756877186 0 0
LeftFoot -7.933180462 22.38441647 -24.26081598
LeftToes 8.82235e-011 9.04645e-011 1.87288e-011
592
root 51.38195546 38.165 -71.28295249 -177.4123972 39.61255978 -178.0309787
RightUpLeg -24.26567156 6.669809231 6.159016555
RightLeg -3.756911303 0 0
RightFoot 15.46740061 7.433910718 -0.7878076037
RightToes 2.32829e-010 -1.59028e-015 9.93923e-017
Spine -10.9399 -6.41197 -5.48148
Spine1 13.8472 -8.17579 6.99416
HEad -8.70126 5.58694 0.205254
LeftShoulder1 9.93923e-017 0 1.22299e-017
LeftArm 29.0531 20.3477 -79.6497
LeftForeArm -50.8804 -25.8241 16.4731
LeftHand 0.855054 6.00922 -1.12265
RightShoulder 1.98785e-016 -4.96962e-017 1.55301e-017
RightArm 8.52088 -61.6776 75.5044
RightForeArm -25.8572 15.2745 -0.718439
RightHand 1.12223 -10.8038 -3.2164
LeftUpLeg 28.59825595 0.4650273517 2.30708138
LeftLeg -3.756877186 0 0
LeftFoot -4.794478494 27.85862453 -31.99420218
LeftToes 8.82235e-011 9.04645e-011 1.87288e-011
593
root 52.68868805 38.0808 -72.06422475 -175.4507185 42.67810839 -174.7401632
RightUpLeg -21.95348192 7.818011927 10.62156533
RightLeg -3.756911303 0 0
RightFoot 19.68917608 11.33251364 -3.047264073
RightToes 2.32829e-010 -1.59028e-015 9.93923e-017
Spine -10.1178 -6.00399 -1.72661
Spine1 13.3684 -7.93258 6.7795
HEad -9.08561 4.90566 -0.295565
LeftShoulder1 9.93923e-017 0 1.22299e-017
LeftArm 24.5905 24.621 -81.2319
LeftForeArm -46.0359 -23.8681 12.0075
LeftHand 0.858088 6.00119 -1.52961
RightShoulder 1.98785e-016 -4.96962e-017 1.55301e-017
RightArm 7.0644 -60.6268 77.2965
RightForeArm -26.1256 15.4337 -1.01533
RightHand 1.12325 -10.7692 -3.33988
LeftUpLeg 26.60945073 -1.521236953 5.624597359
LeftLeg 4.83959088 0 0
LeftFoot 0.8052452588 31.50146103 -40.40929485
LeftToes 8.82235e-011 9.04645e-011 1.87288e-011
594
root 53.8659926 37.9969 -72.75603147 -173.2958568 45.80232429 -171.3120363
RightUpLeg -19.22531316 7.411014481 15.21612565
RightLeg -3.756911303 0 0
RightFoot 19.61206492 16.00144214 -4.382313012
RightToes 2.32829e-010 -1.59028e-015 9.93923e-017
Spine -8.85864 -5.1147 2.15902
Spine1 13.2645 -6.98564 6.37604
HEad -10.1836 3.71447 -0.298579
LeftShoulder1 9.93923e-017 0 1.22299e-017
LeftArm 13.6046 27.8414 -82.5725
LeftForeArm -33.7381 -20.3283 4.26896
LeftHand 0.85281 5.94591 -1.68942
RightShoulder 1.98785e-016 -4.96962e-017 1.55301e-017
RightArm 4.79104 -57.8585 79.5258
RightForeArm -25.3247 15.0762 -0.454751
RightHand 1.12097 -10.7754 -3.21477
LeftUpLeg 20.4062409 -3.3944254 10.80449993
LeftLeg 21.66591811 0 0
LeftFoot 9.225027239 31.71554633 -46.71889012
LeftToes 8.82235e-011 9.04645e-011 1.87288e-011
595
root 54.94111092 37.9889 -73.377817 -171.6157733 48.79247515 -168.8257102
RightUpLeg -19.44397369 6.684247889 17.87251591
RightLeg 2.560803156 0 0
RightFoot 14.13321954 19.75654434 -6.778119306
RightToes 2.32829e-010 -1.59028e-015 9.93923e-017
Spine -7.82617 -4.18321 4.85693
Spine1 13.5892 -5.81217 5.89013
HEad -11.1141 2.29806 0.547046
LeftShoulder1 9.93923e-017 0 1.22299e-017
LeftArm 2.37092 30.3708 -83.2703
LeftForeArm -21.1373 -14.5294 -2.58577
LeftHand 0.879318 6.09409 -2.61043
RightShoulder 1.98785e-016 -4.96962e-017 1.55301e-017
RightArm 3.13328 -53.2422 81.7141
RightForeArm -23.927 14.2745 0.861444
RightHand 1.12761 -10.7757 -3.38363
LeftUpLeg 14.83287958 -4.350673375 11.68947507
LeftLeg 30.32009827 1.812155112 5.822127789
LeftFoot 17.362141 35.71712453 -36.32042804
LeftToes 8.82235e-011 9.04645e-011 1.87288e-011
596
root 56.02613824 38.2368 -74.00770868 -170.8699717 51.78009485 -167.8777353
RightUpLeg -16.21085546 6.913425573 19.40264458
RightLeg 1.695684807 0 0
RightFoot 12.46321066 22.67574618 -8.060152265
RightToes 2.32829e-010 -1.59028e-015 9.93923e-017
Spine -7.471 -3.38381 6.01816
Spine1 13.8059 -4.71277 5.16031
HEad -10.7382 0.819757 1.88153
LeftShoulder1 9.93923e-017 0 1.22299e-017
LeftArm -1.51826 33.0471 -83.3931
LeftForeArm -15.0812 -9.44565 -6.17775
LeftHand 0.93976 6.5249 -4.42647
RightShoulder 1.98785e-016 -4.96962e-017 1.55301e-017
RightArm 4.08717 -48.0352 83.6402
RightForeArm -24.1846 14.0368 1.48387
RightHand 1.15347 -10.7282 -4.27077
LeftUpLeg 8.674759262 -5.489869832 10.70290066
LeftLeg 39.04604957 2.345739287 10.43622501
LeftFoot 18.56309019 32.91444304 -31.51468644
LeftToes 8.82235e-011 9.04645e-011 1.87288e-011
597
root 57.16657296 38.6402 -74.69360777 -170.9421406 55.17052061 -168.1456351
RightUpLeg -10.70616388 6.802719817 20.30566525
RightLeg -3.756911303 0 0
RightFoot 13.31457158 26.20277117 -7.632237081
RightToes 2.32829e-010 -1.59028e-015 9.93923e-017
Spine -7.67037 -2.51773 6.47335
Spine1 13.688 -3.46845 3.80072
HEad -9.14405 -0.707546 2.91489
LeftShoulder1 9.93923e-017 0 1.22299e-017
LeftArm 1.10318 36.3486 -82.924
LeftForeArm -14.1159 -7.68597 -7.38561
LeftHand 1.00284 7.13454 -6.18465
RightShoulder 1.98785e-016 -4.96962e-017 1.55301e-017
RightArm 7.34038 -43.5911 85.2189
RightForeArm -27.2352 15.2275 0.003924370001
RightHand 1.18297 -10.6363 -5.35387
LeftUpLeg 2.593798864 -6.700506832 8.699540253
LeftLeg 44.15653974 1.540095204 13.10871575
LeftFoot 16.20280433 28.4974557 -27.09848104
LeftToes 8.82235e-011 9.04645e-011 1.87288e-011
598
root 58.30550186 38.9605 -75.41147365 -171.2772859 59.02562651 -168.6963495
RightUpLeg -7.761275097 5.895638483 20.24823617
RightLeg -3.756911303 0 0
RightFoot 10.88243353 30.16493632 -7.748482892
RightToes 2.32829e-010 -1.59028e-015 9.93923e-017
Spine -7.83645 -1.43061 7.21708
Spine1 13.4939 -1.89804 1.99475
HEad -7.51557 -2.16027 3.22743
LeftShoulder1 9.93923e-017 0 1.22299e-017
LeftArm 3.31971 40.2464 -81.5602
LeftForeArm -12.7848 -8.16886 -7.155
LeftHand 1.03904 7.59664 -7.14162
RightShoulder 1.98785e-016 -4.96962e-017 1.55301e-017
RightArm 13.4859 -40.2862 86.3907
RightForeArm -35.0111 17.704 -4.95831
RightHand 1.18406 -10.5387 -5.75478
LeftUpLeg -3.195357299 -7.615200713 6.757048533
LeftLeg 46.47791599 -0.1288975965 12.77225832
LeftFoot 13.52603966 25.01270814 -24.75934962
LeftToes 8.82235e-011 9.04645e-011 1.87288e-011
599
root 59.41485582 39.1443 -76.1244764 -171.483347 63.23031164 -169.0136722
RightUpLeg -4.794833952 4.903651755 19.93685063
RightLeg -3.756911303 0 0
RightFoot 8.470833304 34.71293074 -8.154212639
RightToes 2.32829e-010 -1.59028e-015 9.93923e-017
Spine -7.68166 -0.17435 8.22232
Spine1 13.3304 -0.160738 0.328532
HEad -6.7365 -3.35321 3.01867
LeftShoulder1 9.93923e-017 0 1.22299e-017
LeftArm 5.60205 44.353 -79.4347
LeftForeArm -13.5077 -8.53464 -6.98397
LeftHand 1.03691 7.58639 -7.36546
RightShoulder 1.98785e-016 -4.96962e-017 1.55301e-017
RightArm 23.2456 -37.7105 87.0416
RightForeArm -47.9143 19.9529 -13.667
RightHand 1.16294 -10.4491 -5.53183
LeftUpLeg -8.622160022 -7.761533152 5.416915645
LeftLeg 46.74632073 -2.05574193 10.32873927
LeftFoot 11.14155572 22.00996387 -23.74040083
LeftToes 8.82235e-011 9.04645e-011 1.87288e-011
